<svg id="visual" viewBox="0 0 1600 100" width="1600" height="100" xmlns="http://www.w3.org/2000/svg" xmlns:xlink="http://www.w3.org/1999/xlink" version="1.1"><path d="M0 72L16.7 66.2C33.3 60.3 66.7 48.7 100 45.8C133.3 43 166.7 49 200 54.5C233.3 60 266.7 65 300 63C333.3 61 366.7 52 400 50.3C433.3 48.7 466.7 54.3 500 55C533.3 55.7 566.7 51.3 600 53.8C633.3 56.3 666.7 65.7 700 70C733.3 74.3 766.7 73.7 800 69.2C833.3 64.7 866.7 56.3 900 51.5C933.3 46.7 966.7 45.3 1000 50.2C1033.3 55 1066.7 66 1100 63.7C1133.3 61.3 1166.7 45.7 1200 38.5C1233.3 31.3 1266.7 32.7 1300 36.2C1333.3 39.7 1366.7 45.3 1400 52.5C1433.3 59.7 1466.7 68.3 1500 65.2C1533.3 62 1566.7 47 1583.3 39.5L1600 32L1600 101L1583.3 101C1566.7 101 1533.3 101 1500 101C1466.7 101 1433.3 101 1400 101C1366.7 101 1333.3 101 1300 101C1266.7 101 1233.3 101 1200 101C1166.7 101 1133.3 101 1100 101C1066.7 101 1033.3 101 1000 101C966.7 101 933.3 101 900 101C866.7 101 833.3 101 800 101C766.7 101 733.3 101 700 101C666.7 101 633.3 101 600 101C566.7 101 533.3 101 500 101C466.7 101 433.3 101 400 101C366.7 101 333.3 101 300 101C266.7 101 233.3 101 200 101C166.7 101 133.3 101 100 101C66.7 101 33.3 101 16.7 101L0 101Z" fill="#FFFFFF" stroke-linecap="round" stroke-linejoin="miter"></path></svg>