<svg id="visual" viewBox="0 0 1600 100" width="1600" height="100" xmlns="http://www.w3.org/2000/svg" xmlns:xlink="http://www.w3.org/1999/xlink" version="1.1"><path d="M0 37L15.7 37C31.3 37 62.7 37 94 38.7C125.3 40.3 156.7 43.7 188 45.7C219.3 47.7 250.7 48.3 282 44C313.3 39.7 344.7 30.3 376.2 29C407.7 27.7 439.3 34.3 470.8 38.8C502.3 43.3 533.7 45.7 565 43.3C596.3 41 627.7 34 659 35.3C690.3 36.7 721.7 46.3 753 51.3C784.3 56.3 815.7 56.7 847 53C878.3 49.3 909.7 41.7 941 35.5C972.3 29.3 1003.7 24.7 1035 25.8C1066.3 27 1097.7 34 1129.2 40.3C1160.7 46.7 1192.3 52.3 1223.8 48.8C1255.3 45.3 1286.7 32.7 1318 29.5C1349.3 26.3 1380.7 32.7 1412 38.7C1443.3 44.7 1474.7 50.3 1506 48.2C1537.3 46 1568.7 36 1584.3 31L1600 26L1600 0L1584.3 0C1568.7 0 1537.3 0 1506 0C1474.7 0 1443.3 0 1412 0C1380.7 0 1349.3 0 1318 0C1286.7 0 1255.3 0 1223.8 0C1192.3 0 1160.7 0 1129.2 0C1097.7 0 1066.3 0 1035 0C1003.7 0 972.3 0 941 0C909.7 0 878.3 0 847 0C815.7 0 784.3 0 753 0C721.7 0 690.3 0 659 0C627.7 0 596.3 0 565 0C533.7 0 502.3 0 470.8 0C439.3 0 407.7 0 376.2 0C344.7 0 313.3 0 282 0C250.7 0 219.3 0 188 0C156.7 0 125.3 0 94 0C62.7 0 31.3 0 15.7 0L0 0Z" fill="#FFFFFF" stroke-linecap="round" stroke-linejoin="miter"></path></svg>